<svg xmlns="http://www.w3.org/2000/svg" width="auto" height="100" viewBox="0 0 45.201 65.501"><g id="svgGroup" stroke-linecap="round" fill-rule="evenodd" font-size="9pt" stroke="#000" stroke-width="1.5mm" fill="none" style="stroke:#f0ac2d;stroke-width:0.25mm;fill:#f0ac2d"><path d="M 12.931 65.192 A 27.454 27.454 0 0 0 17.2 65.501 A 36.123 36.123 0 0 0 19.08 65.452 A 30.523 30.523 0 0 0 31.1 62.401 A 30.306 30.306 0 0 0 32.344 61.772 A 25.29 25.29 0 0 0 41.4 53.801 Q 45.2 48.301 45.2 41.601 A 20.984 20.984 0 0 0 44.993 38.576 Q 43.589 28.943 32.7 27.201 A 21.37 21.37 0 0 0 33.082 26.872 A 18.595 18.595 0 0 0 37.5 21.201 Q 39.2 17.801 39.2 13.801 A 17.102 17.102 0 0 0 39.174 12.846 A 12.506 12.506 0 0 0 34.9 3.801 Q 31.94 1.184 27.083 0.369 A 28.956 28.956 0 0 0 22.3 0.001 A 38.201 38.201 0 0 0 19.791 0.082 A 32.696 32.696 0 0 0 12.75 1.301 A 43.803 43.803 0 0 0 11.363 1.73 Q 9.64 2.296 8.179 2.946 A 22.925 22.925 0 0 0 5.4 4.401 Q 3.678 5.41 2.538 6.507 A 8.596 8.596 0 0 0 1.25 8.051 A 7.64 7.64 0 0 0 0.231 10.551 A 10.43 10.43 0 0 0 0 12.801 Q 0 14.811 0.499 15.699 A 1.215 1.215 0 0 0 1.6 16.401 Q 2.4 16.401 4.1 15.401 A 46.303 46.303 0 0 1 4.107 15.473 Q 4.4 18.758 4.4 24.001 Q 4.4 28.601 4 32.451 Q 3.775 34.616 3.424 37.114 A 188.179 188.179 0 0 1 2.8 41.201 A 390.944 390.944 0 0 0 2.507 43.228 Q 2.206 45.351 2 47.001 Q 1.813 48.501 1.742 49.727 A 24.09 24.09 0 0 0 1.7 51.101 A 19.493 19.493 0 0 0 2.097 55.136 A 13.451 13.451 0 0 0 5.3 61.551 Q 7.895 64.397 12.931 65.192 Z M 21.2 54.401 Q 25.7 54.401 29.35 53.151 A 16.113 16.113 0 0 0 32.453 51.726 A 12.318 12.318 0 0 0 35.2 49.501 Q 37.4 47.101 37.4 43.901 A 9.022 9.022 0 0 0 37.145 41.678 A 5.556 5.556 0 0 0 34.5 38.101 A 12.377 12.377 0 0 0 29.644 36.507 A 15.612 15.612 0 0 0 27.8 36.401 A 22.09 22.09 0 0 0 26.547 36.439 Q 25.942 36.474 25.256 36.539 A 49.724 49.724 0 0 0 23.8 36.701 Q 22.871 36.886 21.682 36.9 A 16.492 16.492 0 0 1 21.5 36.901 A 4.428 4.428 0 0 1 18.152 35.448 A 5.876 5.876 0 0 1 17.85 35.101 A 6.467 6.467 0 0 1 16.515 32.048 A 8.8 8.8 0 0 1 16.4 30.601 A 3.198 3.198 0 0 1 16.524 29.678 Q 16.831 28.657 17.903 28.265 A 3.239 3.239 0 0 1 18.1 28.201 A 31.438 31.438 0 0 0 22.835 26.584 Q 25.139 25.564 26.732 24.271 A 8.897 8.897 0 0 0 30.3 17.101 Q 30.3 11.73 23.979 10.938 A 19.178 19.178 0 0 0 21.6 10.801 Q 18.4 10.801 13.7 11.901 A 106.528 106.528 0 0 1 13.419 19.504 A 122.344 122.344 0 0 1 13.2 22.151 A 140.406 140.406 0 0 1 12.169 30.429 A 160.905 160.905 0 0 1 11.7 33.301 A 440.63 440.63 0 0 0 11.285 36.125 Q 11.127 37.228 10.993 38.21 A 209.543 209.543 0 0 0 10.75 40.051 A 59.207 59.207 0 0 0 10.566 41.667 Q 10.411 43.221 10.401 44.343 A 17.22 17.22 0 0 0 10.4 44.501 Q 10.4 49.901 13.1 52.151 A 8.529 8.529 0 0 0 15.844 53.643 Q 17.093 54.069 18.628 54.255 A 21.383 21.383 0 0 0 21.2 54.401 Z" vector-effect="non-scaling-stroke"/></g></svg>