<svg xmlns="http://www.w3.org/2000/svg" width="auto" height="100" viewBox="0 0 50.101 66.001"><g id="svgGroup" stroke-linecap="round" fill-rule="evenodd" font-size="9pt" stroke="#000" stroke-width="1.5mm" fill="none" style="stroke:#3bb570;stroke-width:0.25mm;fill:#3bb570"><path d="M 23.6 66 Q 16.5 66 11.15 62.8 A 21.198 21.198 0 0 1 2.992 53.884 A 25.372 25.372 0 0 1 2.9 53.7 A 27.412 27.412 0 0 1 0.556 46.367 A 38.089 38.089 0 0 1 0 39.7 Q 0 32 2.5 24.9 Q 5 17.8 9.7 12.2 Q 14.4 6.6 21 3.3 A 31.367 31.367 0 0 1 31.853 0.207 A 38.795 38.795 0 0 1 35.9 0 A 33.377 33.377 0 0 1 40.073 0.246 Q 42.225 0.517 44.029 1.09 A 16.346 16.346 0 0 1 46.1 1.9 A 9.038 9.038 0 0 1 48.034 3.111 A 5.476 5.476 0 0 1 50.1 7.5 Q 50.1 9.3 49.15 11.05 Q 48.2 12.8 46.7 14 A 6.062 6.062 0 0 1 45.477 14.772 A 4.404 4.404 0 0 1 43.6 15.2 A 3.248 3.248 0 0 1 42.933 15.136 Q 42.385 15.021 42 14.7 Q 39.3 12.9 36.7 12.05 A 16.489 16.489 0 0 0 33.807 11.4 Q 32.347 11.2 30.7 11.2 A 25.789 25.789 0 0 0 25.101 11.779 A 18.864 18.864 0 0 0 18.7 14.45 Q 13.8 17.7 11.25 23 A 26.132 26.132 0 0 0 8.701 34.307 A 30.035 30.035 0 0 0 8.7 34.5 Q 8.7 40.5 11 45.1 A 18.14 18.14 0 0 0 15.223 50.667 A 17.264 17.264 0 0 0 17.4 52.3 Q 21.5 54.9 27 54.9 Q 31.4 54.9 35.55 53.15 Q 39.7 51.4 42.9 48.3 A 6.139 6.139 0 0 1 43.808 47.594 Q 44.754 47 45.7 47 A 2.23 2.23 0 0 1 46.394 47.102 Q 47.039 47.312 47.379 47.958 A 2.292 2.292 0 0 1 47.4 48 A 4.816 4.816 0 0 1 47.805 49.125 A 4.084 4.084 0 0 1 47.9 50 A 6.997 6.997 0 0 1 47.712 51.559 Q 47.547 52.28 47.238 53.067 A 14.221 14.221 0 0 1 46.9 53.85 A 12.854 12.854 0 0 1 45.577 56.054 Q 44.865 57.019 43.927 57.973 A 21.447 21.447 0 0 1 43.8 58.1 A 25.09 25.09 0 0 1 36.982 62.905 A 30.166 30.166 0 0 1 34.7 63.9 Q 29.3 66 23.6 66 Z" vector-effect="non-scaling-stroke"/></g></svg>