<svg xmlns="http://www.w3.org/2000/svg" width="auto" height="100" viewBox="0 0 52.101 66.001"><g id="svgGroup" stroke-linecap="round" fill-rule="evenodd" font-size="9pt" stroke="#000" stroke-width="1.5mm" fill="none" style="stroke:#dc4422;stroke-width:0.25mm;fill:#dc4422"><path d="M 12.128 65.78 A 34.174 34.174 0 0 0 16.1 66.001 A 45.071 45.071 0 0 0 22.592 65.551 A 34.236 34.236 0 0 0 31.5 63.051 Q 38.2 60.101 42.8 54.851 Q 47.4 49.601 49.75 42.751 A 42.058 42.058 0 0 0 50.301 41.025 A 45.01 45.01 0 0 0 52.1 28.201 A 47.99 47.99 0 0 0 52.044 25.85 Q 51.822 21.334 50.732 17.566 A 23.883 23.883 0 0 0 44.95 7.351 A 23.396 23.396 0 0 0 33.552 0.94 A 34.226 34.226 0 0 0 25.3 0.001 Q 19.8 0.001 14.45 1.351 A 56.303 56.303 0 0 0 11.678 2.123 Q 9.994 2.641 8.564 3.214 A 25.929 25.929 0 0 0 5.8 4.501 Q 2.7 6.101 1.35 8.151 A 7.901 7.901 0 0 0 0.268 10.687 A 10.391 10.391 0 0 0 0 13.101 A 7.304 7.304 0 0 0 0.042 13.898 A 5.794 5.794 0 0 0 0.3 15.101 Q 0.6 16.001 1.5 16.001 A 2.23 2.23 0 0 0 1.743 15.987 Q 1.952 15.965 2.184 15.904 A 4.479 4.479 0 0 0 2.65 15.751 Q 3.3 15.501 4 15.201 A 45.755 45.755 0 0 1 4.204 16.743 A 55.717 55.717 0 0 1 4.45 19.501 Q 4.6 21.801 4.6 23.601 A 107.488 107.488 0 0 1 4.466 28.868 A 137.633 137.633 0 0 1 3.9 36.201 A 298.478 298.478 0 0 1 3.347 41.175 A 243.826 243.826 0 0 1 2.3 48.901 Q 1.7 52.301 1.7 55.701 Q 1.7 57.785 2.192 59.524 A 11.55 11.55 0 0 0 2.2 59.551 A 6.327 6.327 0 0 0 2.919 61.164 A 7.615 7.615 0 0 0 4.2 62.701 Q 6.2 64.601 9.3 65.301 A 27.191 27.191 0 0 0 12.128 65.78 Z M 19.3 54.801 Q 23.8 54.801 28.3 53.401 Q 32.8 52.001 36.45 49.201 A 20.466 20.466 0 0 0 42.153 42.338 A 23.667 23.667 0 0 0 42.3 42.051 A 19.603 19.603 0 0 0 44.017 36.935 Q 44.462 34.654 44.497 32.046 A 33.3 33.3 0 0 0 44.5 31.601 A 29.095 29.095 0 0 0 44.121 26.764 Q 43.488 23.014 41.8 20.201 Q 39.1 15.701 34.6 13.501 A 21.824 21.824 0 0 0 26.628 11.379 A 26.183 26.183 0 0 0 24.6 11.301 Q 21.6 11.301 18.65 11.801 Q 15.985 12.253 14.341 12.705 A 19.609 19.609 0 0 0 14 12.801 Q 13.9 17.401 13.45 21.751 Q 13 26.101 12.4 30.201 Q 11.8 34.501 11.45 38.601 Q 11.1 42.701 11.1 46.701 A 18.998 18.998 0 0 0 11.213 48.855 Q 11.581 52.064 13.15 53.251 A 6.576 6.576 0 0 0 15.065 54.226 Q 15.974 54.527 17.092 54.67 A 17.385 17.385 0 0 0 19.3 54.801 Z" vector-effect="non-scaling-stroke"/></g></svg>